<svg width="205" height="32" viewBox="0 0 205 32" fill="none" xmlns="http://www.w3.org/2000/svg">
<path d="M44.8368 7.0705C45.6191 7.08624 46.425 7.12561 47.2543 7.1886C48.0992 7.25159 48.9364 7.37756 49.7657 7.56652L49.6014 9.24358C48.9285 9.21209 48.1696 9.18847 47.3247 9.17272C46.4954 9.15697 45.6895 9.1491 44.9072 9.1491C44.3595 9.1491 43.8901 9.16484 43.4989 9.19634C43.1077 9.22783 42.787 9.31444 42.5366 9.45616C42.2863 9.59789 42.0985 9.82622 41.9733 10.1412C41.8638 10.4561 41.809 10.8891 41.809 11.4403C41.809 12.2749 41.9655 12.8654 42.2784 13.2118C42.5914 13.5425 43.0999 13.7945 43.804 13.9677L47.0665 14.8416C48.3183 15.1566 49.1789 15.692 49.6483 16.4478C50.1177 17.1879 50.3524 18.1879 50.3524 19.4476C50.3524 20.3925 50.2429 21.1562 50.0238 21.7388C49.8204 22.3215 49.4918 22.7702 49.0381 23.0852C48.5999 23.4001 48.0288 23.6206 47.3247 23.7466C46.6206 23.8725 45.7834 23.9355 44.8133 23.9355C44.2813 23.9355 43.5772 23.9119 42.7009 23.8647C41.8247 23.8174 40.8154 23.6836 39.6732 23.4631L39.8374 21.7388C40.7606 21.7703 41.5117 21.8018 42.0907 21.8333C42.6853 21.849 43.1938 21.8569 43.6163 21.8569C44.0388 21.8569 44.4612 21.8569 44.8837 21.8569C45.6661 21.8569 46.2841 21.8018 46.7379 21.6916C47.1917 21.5656 47.5125 21.3294 47.7002 20.983C47.888 20.6208 47.9819 20.1011 47.9819 19.424C47.9819 18.8414 47.9115 18.3847 47.7706 18.054C47.6455 17.7233 47.4342 17.4793 47.1369 17.3218C46.8553 17.1486 46.4876 17.0068 46.0338 16.8966L42.6774 15.9754C41.5039 15.6447 40.6746 15.1093 40.1895 14.3692C39.7044 13.6291 39.4619 12.6449 39.4619 11.4167C39.4619 10.4718 39.5636 9.70812 39.767 9.12548C39.9861 8.54284 40.3147 8.1098 40.7528 7.82635C41.1909 7.52716 41.7464 7.33032 42.4193 7.23584C43.0921 7.12561 43.8979 7.0705 44.8368 7.0705Z" fill="white"/>
<path d="M55.8307 7.35394V23.6521H53.4836V7.35394H55.8307ZM63.2241 13.9677V15.9282H55.6429V13.9677H63.2241ZM65.3364 7.35394V23.6521H62.9659V7.35394H65.3364Z" fill="white"/>
<path d="M75.8485 7.35394C76.0519 7.35394 76.2319 7.41693 76.3883 7.5429C76.5448 7.65313 76.6543 7.80273 76.7169 7.99169L81.8336 23.6521H79.3926L75.3556 10.5427C75.293 10.3065 75.2304 10.0703 75.1678 9.83409C75.1052 9.59789 75.0427 9.37743 74.9801 9.17272H74.3229C74.2603 9.37743 74.1977 9.59789 74.1351 9.83409C74.0725 10.0703 74.0021 10.3065 73.9239 10.5427L69.8869 23.6521H67.4694L72.586 7.99169C72.6486 7.80273 72.7582 7.65313 72.9146 7.5429C73.0711 7.41693 73.251 7.35394 73.4545 7.35394H75.8485ZM78.7589 16.7313V18.6918H70.4971V16.7313H78.7589Z" fill="white"/>
<path d="M89.859 7.14136C91.0482 7.14136 92.0496 7.28308 92.8633 7.56652C93.6926 7.84997 94.3576 8.31451 94.8583 8.96013C95.359 9.59001 95.7189 10.4482 95.938 11.5348C96.1727 12.6056 96.29 13.9283 96.29 15.503C96.29 17.0777 96.1727 18.4083 95.938 19.4949C95.7189 20.5657 95.359 21.4239 94.8583 22.0695C94.3576 22.6994 93.6926 23.156 92.8633 23.4395C92.0496 23.7229 91.0482 23.8647 89.859 23.8647C88.7324 23.8647 87.684 23.841 86.7139 23.7938C85.7594 23.7623 84.8519 23.7151 83.9913 23.6521L84.977 21.7624C85.6342 21.7939 86.3618 21.8254 87.1598 21.8569C87.9735 21.8727 88.8732 21.8805 89.859 21.8805C90.8604 21.8805 91.6506 21.6837 92.2296 21.29C92.8085 20.8964 93.2153 20.2429 93.4501 19.3295C93.7004 18.4005 93.8256 17.125 93.8256 15.503C93.8256 13.8811 93.7004 12.6134 93.4501 11.7001C93.2153 10.771 92.8085 10.1097 92.2296 9.71599C91.6506 9.30657 90.8604 9.10186 89.859 9.10186C88.8889 9.10186 88.0204 9.10973 87.2537 9.12548C86.487 9.14122 85.7359 9.15697 85.0005 9.17272L83.9913 7.35394C84.8519 7.29095 85.7594 7.24371 86.7139 7.21222C87.684 7.16498 88.7324 7.14136 89.859 7.14136ZM86.3384 7.35394V23.6521H83.9913V7.35394H86.3384Z" fill="white"/>
<path d="M105.561 7.04688C106.75 7.04688 107.759 7.1886 108.589 7.47204C109.434 7.75549 110.106 8.22002 110.607 8.86565C111.108 9.51128 111.468 10.3774 111.687 11.4639C111.922 12.5504 112.039 13.8968 112.039 15.503C112.039 17.0935 111.922 18.4398 111.687 19.5421C111.468 20.6287 111.108 21.4947 110.607 22.1404C110.106 22.786 109.434 23.2505 108.589 23.534C107.759 23.8174 106.75 23.9591 105.561 23.9591C104.372 23.9591 103.355 23.8174 102.51 23.534C101.68 23.2505 101.008 22.786 100.491 22.1404C99.9904 21.4947 99.6227 20.6287 99.388 19.5421C99.1533 18.4398 99.036 17.0935 99.036 15.503C99.036 13.8968 99.1533 12.5504 99.388 11.4639C99.6227 10.3774 99.9904 9.51128 100.491 8.86565C101.008 8.22002 101.68 7.75549 102.51 7.47204C103.355 7.1886 104.372 7.04688 105.561 7.04688ZM105.561 9.10186C104.544 9.10186 103.738 9.29869 103.143 9.69237C102.549 10.086 102.126 10.7474 101.876 11.6765C101.641 12.5898 101.524 13.8653 101.524 15.503C101.524 17.125 101.641 18.4005 101.876 19.3295C102.126 20.2586 102.549 20.92 103.143 21.3137C103.738 21.7073 104.544 21.9042 105.561 21.9042C106.578 21.9042 107.376 21.7073 107.955 21.3137C108.55 20.92 108.972 20.2586 109.222 19.3295C109.473 18.4005 109.598 17.125 109.598 15.503C109.598 13.8653 109.473 12.5898 109.222 11.6765C108.972 10.7474 108.55 10.086 107.955 9.69237C107.376 9.29869 106.578 9.10186 105.561 9.10186Z" fill="white"/>
<path d="M135.108 7.35394L131.939 22.9671C131.892 23.156 131.791 23.3214 131.634 23.4631C131.478 23.5891 131.282 23.6521 131.047 23.6521H128.513C128.278 23.6521 128.074 23.5891 127.902 23.4631C127.746 23.3214 127.652 23.1482 127.621 22.9435L125.227 10.9915C125.164 10.6766 125.101 10.3616 125.039 10.0467C124.976 9.71599 124.914 9.40105 124.851 9.10186H124.382C124.319 9.40105 124.256 9.71599 124.194 10.0467C124.147 10.3774 124.092 10.6923 124.03 10.9915L121.659 22.9435C121.612 23.1482 121.503 23.3214 121.33 23.4631C121.174 23.5891 120.986 23.6521 120.767 23.6521H118.209C117.974 23.6521 117.771 23.5891 117.599 23.4631C117.442 23.3214 117.348 23.156 117.317 22.9671L114.148 7.35394H116.589L118.96 19.8019C119.022 20.1169 119.077 20.4476 119.124 20.794C119.171 21.1404 119.226 21.5026 119.288 21.8805H119.805C119.867 21.5184 119.93 21.1641 119.993 20.8176C120.055 20.4712 120.118 20.1326 120.18 19.8019L122.551 8.1098C122.582 7.88934 122.676 7.70825 122.833 7.56652C123.005 7.4248 123.208 7.35394 123.443 7.35394H125.813C126.048 7.35394 126.244 7.4248 126.4 7.56652C126.557 7.70825 126.658 7.88934 126.705 8.1098L129.076 19.8019C129.154 20.1641 129.217 20.5184 129.264 20.8649C129.326 21.1955 129.373 21.5341 129.404 21.8805H129.991C130.023 21.5341 130.062 21.1877 130.109 20.8412C130.156 20.4948 130.21 20.1562 130.273 19.8256L132.667 7.35394H135.108Z" fill="white"/>
<path d="M143.842 7.35394V23.6521H141.495V7.35394H143.842ZM149.006 7.35394V9.3853H136.355V7.35394H149.006Z" fill="white"/>
<path d="M157.22 7.14136C158.503 7.14136 159.535 7.28308 160.318 7.56652C161.116 7.83422 161.695 8.31451 162.055 9.00738C162.414 9.6845 162.594 10.6372 162.594 11.8655C162.594 12.7315 162.493 13.4559 162.289 14.0385C162.086 14.6212 161.765 15.0778 161.327 15.4085C160.904 15.7392 160.326 15.9518 159.59 16.0463V16.1644C159.856 16.2274 160.122 16.3533 160.388 16.5423C160.654 16.7313 160.904 16.9911 161.139 17.3218C161.374 17.6367 161.546 18.0383 161.656 18.5264L163.181 23.6521H160.693L159.285 18.5737C159.097 17.9753 158.839 17.5501 158.51 17.2982C158.182 17.0462 157.752 16.9202 157.22 16.9202C156.234 16.9202 155.389 16.9202 154.685 16.9202C153.981 16.9045 153.386 16.8887 152.901 16.873C152.431 16.8573 152.048 16.8494 151.751 16.8494L151.821 14.9597H157.173C157.939 14.944 158.542 14.8574 158.98 14.6999C159.418 14.5267 159.731 14.2275 159.919 13.8023C160.122 13.3772 160.224 12.7788 160.224 12.0072C160.224 11.2356 160.122 10.6451 159.919 10.2356C159.731 9.81047 159.418 9.51915 158.98 9.36168C158.542 9.18847 157.939 9.10186 157.173 9.10186C155.858 9.10186 154.724 9.10973 153.769 9.12548C152.815 9.14122 152.173 9.1491 151.845 9.1491L151.516 7.35394C152.111 7.29095 152.674 7.24371 153.206 7.21222C153.738 7.18072 154.317 7.16498 154.943 7.16498C155.584 7.14923 156.343 7.14136 157.22 7.14136ZM153.84 7.35394V23.6521H151.516V7.35394H153.84Z" fill="white"/>
<path d="M172.735 7.35394C172.938 7.35394 173.118 7.41693 173.275 7.5429C173.431 7.65313 173.541 7.80273 173.603 7.99169L178.72 23.6521H176.279L172.242 10.5427C172.179 10.3065 172.117 10.0703 172.054 9.83409C171.992 9.59789 171.929 9.37743 171.867 9.17272H171.209C171.147 9.37743 171.084 9.59789 171.022 9.83409C170.959 10.0703 170.889 10.3065 170.81 10.5427L166.773 23.6521H164.356L169.472 7.99169C169.535 7.80273 169.645 7.65313 169.801 7.5429C169.958 7.41693 170.137 7.35394 170.341 7.35394H172.735ZM175.645 16.7313V18.6918H167.384V16.7313H175.645Z" fill="white"/>
<path d="M186.63 7.0705C187.334 7.0705 187.937 7.08624 188.438 7.11774C188.938 7.14923 189.4 7.20434 189.822 7.28308C190.245 7.34607 190.683 7.44055 191.137 7.56652L190.902 9.33806C190.433 9.29082 189.994 9.25933 189.588 9.24358C189.181 9.21209 188.743 9.18847 188.273 9.17272C187.819 9.15697 187.272 9.1491 186.63 9.1491C185.629 9.1491 184.839 9.34594 184.26 9.73961C183.681 10.1333 183.266 10.7947 183.016 11.7237C182.781 12.6371 182.664 13.8968 182.664 15.503C182.664 17.1092 182.781 18.3768 183.016 19.3059C183.266 20.2192 183.681 20.8727 184.26 21.2664C184.839 21.6601 185.629 21.8569 186.63 21.8569C187.647 21.8569 188.5 21.8412 189.189 21.8097C189.893 21.7624 190.573 21.6916 191.231 21.5971L191.465 23.3686C190.777 23.5733 190.065 23.7151 189.329 23.7938C188.61 23.8883 187.71 23.9355 186.63 23.9355C185.066 23.9355 183.806 23.6678 182.851 23.1324C181.913 22.5813 181.232 21.6916 180.809 20.4633C180.387 19.235 180.176 17.5816 180.176 15.503C180.176 13.4244 180.387 11.771 180.809 10.5427C181.232 9.31444 181.913 8.43261 182.851 7.89721C183.806 7.34607 185.066 7.0705 186.63 7.0705Z" fill="white"/>
<path d="M197.292 7.33032C198.074 7.33032 198.872 7.33032 199.686 7.33032C200.499 7.33032 201.298 7.34607 202.08 7.37756C202.878 7.39331 203.637 7.4248 204.357 7.47204L204.263 9.29082H197.808C197.339 9.29082 196.995 9.40892 196.775 9.64513C196.556 9.88133 196.447 10.2593 196.447 10.7789V20.2271C196.447 20.7468 196.556 21.1326 196.775 21.3845C196.995 21.6207 197.339 21.7388 197.808 21.7388H204.263L204.357 23.534C203.637 23.5812 202.878 23.6127 202.08 23.6285C201.298 23.6442 200.499 23.6521 199.686 23.6521C198.872 23.6678 198.074 23.6757 197.292 23.6757C196.322 23.6757 195.547 23.4159 194.968 22.8962C194.405 22.3608 194.115 21.6522 194.1 20.7704V10.2356C194.115 9.33806 194.405 8.62945 194.968 8.1098C195.547 7.59015 196.322 7.33032 197.292 7.33032ZM194.522 14.1566H203.347V15.9754H194.522V14.1566Z" fill="white"/>
<path fill-rule="evenodd" clip-rule="evenodd" d="M18.5922 29.0135C17.6488 29.2194 16.6691 29.328 15.664 29.328C11.019 29.328 6.91541 27.0102 4.44652 23.4682H9.10868C9.79437 23.4682 10.4171 23.3073 10.9768 22.9854C11.5366 22.6566 11.9809 22.2193 12.3097 21.6735C12.6456 21.1208 12.8135 20.5121 12.8135 19.8474V18.2206C12.8135 17.5559 12.6456 16.9507 12.3097 16.4049C11.9809 15.8522 11.5366 15.4149 10.9768 15.093C10.4171 14.7642 9.79437 14.5998 9.10868 14.5998H4.35435C3.94854 14.5998 3.5987 14.4668 3.30484 14.2009C3.01097 13.9351 2.86404 13.6167 2.86404 13.2459V12.2173C2.86404 11.8115 3.01097 11.4652 3.30484 11.1783C3.5987 10.8915 3.94854 10.748 4.35435 10.748H13.6279V10.7481H18.5922V29.0135ZM20.8171 28.3229C25.8092 26.2886 29.328 21.3872 29.328 15.664C29.328 13.9311 29.0054 12.2735 28.417 10.7481H20.8171V28.3229ZM27.3287 8.54411H15.1494V8.54403H4.35435C4.23083 8.54403 4.10916 8.54948 3.98934 8.56037C6.38812 4.62645 10.7193 2 15.664 2C20.6018 2 24.9279 4.61922 27.3287 8.54411ZM2.00419 16.0058C2.05002 17.872 2.46999 19.6453 3.19194 21.2537H9.10868C9.52149 21.2537 9.87133 21.1173 10.1582 20.8444C10.4521 20.5645 10.599 20.2287 10.599 19.8369V18.2311C10.599 17.8393 10.4521 17.5034 10.1582 17.2236C9.87133 16.9437 9.52149 16.8037 9.10868 16.8037H4.35435C3.67567 16.8037 3.05295 16.6463 2.48621 16.3315C2.31507 16.2331 2.1544 16.1245 2.00419 16.0058ZM31.328 15.664C31.328 24.315 24.315 31.328 15.664 31.328C7.013 31.328 0 24.315 0 15.664C0 7.013 7.013 0 15.664 0C24.315 0 31.328 7.013 31.328 15.664Z" fill="white"/>
</svg>
